{
  "accessors": [
    {
      "bufferView": 2,
      "componentType": 5126,
      "count": 3866,
      "max": [
        24.508281707763672,
        34.42420959472656,
        2.4890060424804688
      ],
      "min": [
        -24.587387084960938,
        -34.42668914794922,
        -2.523664712905884
      ],
      "type": "VEC3"
    },
    {
      "bufferView": 2,
      "byteOffset": 46392,
      "componentType": 5126,
      "count": 3866,
      "type": "VEC3"
    },
    {
      "bufferView": 3,
      "componentType": 5126,
      "count": 3866,
      "type": "VEC4"
    },
    {
      "bufferView": 1,
      "componentType": 5126,
      "count": 3866,
      "type": "VEC2"
    },
    {
      "bufferView": 0,
      "componentType": 5125,
      "count": 15942,
      "type": "SCALAR"
    }
  ],
  "asset": {
    "generator": "fab-model-conversion",
    "version": "2.0"
  },
  "bufferViews": [
    {
      "buffer": 0,
      "byteLength": 63768,
      "target": 34963
    },
    {
      "buffer": 0,
      "byteLength": 30928,
      "byteOffset": 63768,
      "byteStride": 8,
      "target": 34962
    },
    {
      "buffer": 0,
      "byteLength": 92784,
      "byteOffset": 94696,
      "byteStride": 12,
      "target": 34962
    },
    {
      "buffer": 0,
      "byteLength": 61856,
      "byteOffset": 187480,
      "byteStride": 16,
      "target": 34962
    }
  ],
  "buffers": [
    {
      "byteLength": 249336,
      "uri": "Damaged_Picture_Frame_ukpidjpaw_Mid.bin"
    }
  ],
  "images": [
    {
      "uri": "textures/Damaged_Picture_Frame_ukpidjpaw_Mid_2K_albedo.jpeg"
    },
    {
      "uri": "textures/Damaged_Picture_Frame_ukpidjpaw_Mid_2K_orm.png"
    },
    {
      "uri": "textures/Damaged_Picture_Frame_ukpidjpaw_Mid_2K_normal.jpeg"
    }
  ],
  "materials": [
    {
      "doubleSided": true,
      "name": "Damaged_Picture_Frame_ukpidjpaw_Mid",
      "normalTexture": {
        "index": 2
      },
      "occlusionTexture": {
        "index": 1
      },
      "pbrMetallicRoughness": {
        "baseColorTexture": {
          "index": 0
        },
        "metallicFactor": 0.0,
        "metallicRoughnessTexture": {
          "index": 1
        }
      }
    }
  ],
  "meshes": [
    {
      "name": "ukpidjpaw_LOD0_TIER2_000_MatID_1_0",
      "primitives": [
        {
          "attributes": {
            "NORMAL": 1,
            "POSITION": 0,
            "TANGENT": 2,
            "TEXCOORD_0": 3
          },
          "indices": 4,
          "material": 0,
          "mode": 4
        }
      ]
    }
  ],
  "nodes": [
    {
      "children": [
        1
      ],
      "matrix": [
        1.0,
        0.0,
        0.0,
        0.0,
        0.0,
        2.220446049250313e-16,
        -1.0,
        0.0,
        0.0,
        1.0,
        2.220446049250313e-16,
        0.0,
        0.0,
        0.0,
        0.0,
        1.0
      ],
      "name": "Sketchfab_model"
    },
    {
      "children": [
        2
      ],
      "matrix": [
        0.009999999776482582,
        0.0,
        0.0,
        0.0,
        0.0,
        0.0,
        0.009999999776482582,
        0.0,
        0.0,
        -0.009999999776482582,
        0.0,
        0.0,
        0.0,
        0.0,
        0.0,
        1.0
      ],
      "name": "Damaged_Picture_Frame_ukpidjpaw_Mid.fbx"
    },
    {
      "children": [
        3
      ],
      "name": "RootNode"
    },
    {
      "children": [
        4
      ],
      "name": "ukpidjpaw_LOD0_TIER2_000"
    },
    {
      "mesh": 0,
      "name": "ukpidjpaw_LOD0_TIER2_000_MatID_1_0"
    }
  ],
  "samplers": [
    {
      "magFilter": 9729,
      "minFilter": 9987,
      "wrapS": 10497,
      "wrapT": 10497
    }
  ],
  "scene": 0,
  "scenes": [
    {
      "name": "Sketchfab_Scene",
      "nodes": [
        0
      ]
    }
  ],
  "textures": [
    {
      "sampler": 0,
      "source": 0
    },
    {
      "sampler": 0,
      "source": 1
    },
    {
      "sampler": 0,
      "source": 2
    }
  ]
}
